G04 MADE WITH FRITZING*
G04 WWW.FRITZING.ORG*
G04 DOUBLE SIDED*
G04 HOLES PLATED*
G04 CONTOUR ON CENTER OF CONTOUR VECTOR*
%ASAXBY*%
%FSLAX23Y23*%
%MOIN*%
%OFA0B0*%
%SFA1.0B1.0*%
%ADD10C,0.075000*%
%ADD11C,0.039370*%
%ADD12C,0.079370*%
%ADD13C,0.078000*%
%ADD14R,0.079370X0.079370*%
%ADD15R,0.055118X0.059055*%
%ADD16R,0.059055X0.055118*%
%ADD17C,0.016000*%
%ADD18C,0.024000*%
%ADD19C,0.012000*%
%ADD20C,0.008000*%
%LNCOPPER1*%
G90*
G70*
G54D10*
X702Y893D03*
G54D11*
X580Y301D03*
X767Y664D03*
G54D10*
X592Y814D03*
X992Y814D03*
G54D12*
X417Y714D03*
X717Y714D03*
X417Y614D03*
X717Y614D03*
X417Y514D03*
X717Y514D03*
X417Y414D03*
X717Y414D03*
G54D10*
X992Y914D03*
X592Y914D03*
G54D11*
X767Y314D03*
G54D13*
X892Y151D03*
X792Y151D03*
G54D11*
X542Y189D03*
X355Y326D03*
G54D14*
X417Y714D03*
G54D15*
X830Y714D03*
X910Y714D03*
X830Y614D03*
X910Y614D03*
X830Y514D03*
X910Y514D03*
G54D16*
X830Y426D03*
X830Y345D03*
X930Y426D03*
X930Y345D03*
G54D15*
X317Y914D03*
X398Y914D03*
X767Y1001D03*
X848Y1001D03*
G54D16*
X242Y914D03*
X242Y994D03*
G54D15*
X242Y664D03*
X323Y664D03*
X317Y564D03*
X236Y564D03*
X242Y464D03*
X323Y464D03*
G54D17*
X690Y138D02*
X668Y138D01*
D02*
X690Y163D02*
X668Y163D01*
D02*
X690Y188D02*
X668Y188D01*
D02*
X690Y213D02*
X668Y213D01*
D02*
X690Y238D02*
X668Y238D01*
D02*
X690Y263D02*
X668Y263D01*
D02*
X690Y288D02*
X668Y288D01*
D02*
X690Y313D02*
X668Y313D01*
D02*
X478Y314D02*
X456Y314D01*
D02*
X478Y289D02*
X456Y289D01*
D02*
X478Y264D02*
X456Y264D01*
D02*
X478Y239D02*
X456Y239D01*
D02*
X478Y214D02*
X456Y214D01*
D02*
X478Y189D02*
X456Y189D01*
D02*
X478Y164D02*
X456Y164D01*
D02*
X478Y139D02*
X456Y139D01*
G54D18*
D02*
X808Y696D02*
X782Y675D01*
G54D19*
D02*
X618Y302D02*
X593Y301D01*
D02*
X992Y977D02*
X992Y937D01*
D02*
X870Y1001D02*
X967Y1000D01*
G54D18*
D02*
X930Y448D02*
X930Y500D01*
D02*
X930Y500D02*
X910Y514D01*
D02*
X808Y514D02*
X748Y514D01*
D02*
X910Y590D02*
X910Y538D01*
D02*
X910Y638D02*
X910Y690D01*
D02*
X830Y638D02*
X830Y690D01*
D02*
X830Y538D02*
X830Y590D01*
G54D19*
D02*
X792Y213D02*
X905Y213D01*
D02*
X768Y239D02*
X693Y238D01*
D02*
X805Y239D02*
X768Y239D01*
D02*
X905Y213D02*
X930Y239D01*
D02*
X830Y323D02*
X830Y264D01*
D02*
X830Y264D02*
X805Y239D01*
D02*
X693Y213D02*
X792Y213D01*
D02*
X930Y239D02*
X930Y323D01*
G54D18*
D02*
X754Y426D02*
X746Y423D01*
D02*
X806Y426D02*
X754Y426D01*
D02*
X906Y426D02*
X854Y426D01*
G54D19*
D02*
X992Y377D02*
X967Y351D01*
D02*
X992Y739D02*
X992Y377D01*
D02*
X767Y764D02*
X967Y764D01*
D02*
X967Y351D02*
X954Y349D01*
D02*
X735Y731D02*
X767Y764D01*
D02*
X967Y764D02*
X992Y739D01*
D02*
X618Y189D02*
X666Y188D01*
D02*
X618Y163D02*
X618Y189D01*
D02*
X642Y139D02*
X618Y163D01*
D02*
X666Y313D02*
X618Y314D01*
D02*
X492Y213D02*
X517Y239D01*
D02*
X517Y239D02*
X518Y263D01*
D02*
X481Y213D02*
X492Y213D01*
D02*
X518Y263D02*
X618Y263D01*
D02*
X481Y263D02*
X518Y263D01*
D02*
X666Y263D02*
X617Y264D01*
D02*
X618Y302D02*
X617Y264D01*
D02*
X617Y264D02*
X618Y189D01*
D02*
X666Y138D02*
X642Y139D01*
D02*
X242Y640D02*
X242Y589D01*
D02*
X242Y589D02*
X242Y588D01*
D02*
X529Y189D02*
X481Y189D01*
D02*
X792Y213D02*
X792Y176D01*
D02*
X767Y300D02*
X768Y239D01*
D02*
X192Y913D02*
X218Y913D01*
D02*
X518Y313D02*
X542Y339D01*
D02*
X280Y288D02*
X242Y325D01*
D02*
X468Y813D02*
X342Y813D01*
D02*
X479Y838D02*
X267Y839D01*
D02*
X267Y839D02*
X242Y814D01*
D02*
X205Y163D02*
X167Y202D01*
D02*
X318Y689D02*
X318Y688D01*
D02*
X318Y789D02*
X318Y689D01*
D02*
X368Y463D02*
X345Y463D01*
D02*
X260Y488D02*
X299Y540D01*
D02*
X492Y539D02*
X492Y789D01*
D02*
X242Y814D02*
X242Y688D01*
D02*
X542Y776D02*
X479Y838D01*
D02*
X542Y339D02*
X542Y776D01*
D02*
X481Y313D02*
X518Y313D01*
D02*
X168Y889D02*
X192Y913D01*
D02*
X454Y164D02*
X205Y163D01*
D02*
X167Y202D02*
X168Y889D01*
D02*
X454Y289D02*
X280Y288D01*
D02*
X242Y325D02*
X242Y440D01*
D02*
X967Y1000D02*
X992Y977D01*
D02*
X342Y813D02*
X318Y789D01*
D02*
X468Y513D02*
X492Y539D01*
D02*
X442Y513D02*
X468Y513D01*
D02*
X492Y789D02*
X468Y813D01*
D02*
X266Y914D02*
X295Y914D01*
D02*
X218Y989D02*
X218Y989D01*
D02*
X168Y989D02*
X218Y989D01*
D02*
X192Y138D02*
X142Y188D01*
D02*
X142Y188D02*
X142Y963D01*
D02*
X454Y139D02*
X192Y138D01*
D02*
X142Y963D02*
X168Y989D01*
G54D20*
D02*
X420Y914D02*
X569Y914D01*
G54D19*
D02*
X399Y431D02*
X368Y463D01*
D02*
X743Y989D02*
X267Y988D01*
D02*
X745Y990D02*
X743Y989D01*
D02*
X267Y988D02*
X266Y988D01*
D02*
X618Y314D02*
X618Y302D01*
G54D18*
D02*
X579Y514D02*
X580Y320D01*
D02*
X686Y514D02*
X579Y514D01*
G36*
X180Y972D02*
X180Y970D01*
X178Y970D01*
X178Y968D01*
X176Y968D01*
X176Y966D01*
X174Y966D01*
X174Y964D01*
X172Y964D01*
X172Y962D01*
X170Y962D01*
X170Y960D01*
X168Y960D01*
X168Y958D01*
X166Y958D01*
X166Y954D01*
X164Y954D01*
X164Y952D01*
X162Y952D01*
X162Y950D01*
X160Y950D01*
X160Y946D01*
X158Y946D01*
X158Y920D01*
X178Y920D01*
X178Y922D01*
X180Y922D01*
X180Y924D01*
X182Y924D01*
X182Y926D01*
X184Y926D01*
X184Y928D01*
X190Y928D01*
X190Y930D01*
X202Y930D01*
X202Y972D01*
X180Y972D01*
G37*
D02*
G36*
X434Y972D02*
X434Y952D01*
X436Y952D01*
X436Y928D01*
X548Y928D01*
X548Y934D01*
X550Y934D01*
X550Y936D01*
X552Y936D01*
X552Y940D01*
X554Y940D01*
X554Y942D01*
X556Y942D01*
X556Y946D01*
X558Y946D01*
X558Y948D01*
X560Y948D01*
X560Y950D01*
X562Y950D01*
X562Y952D01*
X566Y952D01*
X566Y954D01*
X568Y954D01*
X568Y972D01*
X434Y972D01*
G37*
D02*
G36*
X436Y900D02*
X436Y874D01*
X566Y874D01*
X566Y876D01*
X562Y876D01*
X562Y878D01*
X560Y878D01*
X560Y880D01*
X558Y880D01*
X558Y882D01*
X556Y882D01*
X556Y884D01*
X554Y884D01*
X554Y888D01*
X552Y888D01*
X552Y890D01*
X550Y890D01*
X550Y894D01*
X548Y894D01*
X548Y900D01*
X436Y900D01*
G37*
D02*
G36*
X184Y876D02*
X184Y874D01*
X280Y874D01*
X280Y876D01*
X184Y876D01*
G37*
D02*
G36*
X184Y874D02*
X184Y872D01*
X568Y872D01*
X568Y874D01*
X184Y874D01*
G37*
D02*
G36*
X184Y874D02*
X184Y872D01*
X568Y872D01*
X568Y874D01*
X184Y874D01*
G37*
D02*
G36*
X184Y872D02*
X184Y854D01*
X484Y854D01*
X484Y852D01*
X488Y852D01*
X488Y850D01*
X490Y850D01*
X490Y848D01*
X492Y848D01*
X492Y846D01*
X494Y846D01*
X494Y844D01*
X496Y844D01*
X496Y842D01*
X498Y842D01*
X498Y840D01*
X500Y840D01*
X500Y838D01*
X502Y838D01*
X502Y836D01*
X504Y836D01*
X504Y834D01*
X506Y834D01*
X506Y832D01*
X510Y832D01*
X510Y830D01*
X512Y830D01*
X512Y828D01*
X514Y828D01*
X514Y826D01*
X516Y826D01*
X516Y824D01*
X518Y824D01*
X518Y822D01*
X520Y822D01*
X520Y820D01*
X522Y820D01*
X522Y818D01*
X524Y818D01*
X524Y816D01*
X544Y816D01*
X544Y818D01*
X546Y818D01*
X546Y828D01*
X548Y828D01*
X548Y834D01*
X550Y834D01*
X550Y836D01*
X552Y836D01*
X552Y840D01*
X554Y840D01*
X554Y842D01*
X556Y842D01*
X556Y846D01*
X558Y846D01*
X558Y848D01*
X560Y848D01*
X560Y850D01*
X562Y850D01*
X562Y852D01*
X566Y852D01*
X566Y854D01*
X568Y854D01*
X568Y872D01*
X184Y872D01*
G37*
D02*
G36*
X184Y854D02*
X184Y604D01*
X226Y604D01*
X226Y624D01*
X204Y624D01*
X204Y702D01*
X206Y702D01*
X206Y704D01*
X226Y704D01*
X226Y820D01*
X228Y820D01*
X228Y824D01*
X230Y824D01*
X230Y826D01*
X232Y826D01*
X232Y828D01*
X234Y828D01*
X234Y830D01*
X236Y830D01*
X236Y832D01*
X238Y832D01*
X238Y834D01*
X240Y834D01*
X240Y836D01*
X242Y836D01*
X242Y838D01*
X244Y838D01*
X244Y840D01*
X246Y840D01*
X246Y842D01*
X248Y842D01*
X248Y844D01*
X250Y844D01*
X250Y846D01*
X252Y846D01*
X252Y848D01*
X254Y848D01*
X254Y850D01*
X256Y850D01*
X256Y852D01*
X260Y852D01*
X260Y854D01*
X184Y854D01*
G37*
D02*
G36*
X272Y822D02*
X272Y820D01*
X270Y820D01*
X270Y818D01*
X268Y818D01*
X268Y816D01*
X266Y816D01*
X266Y814D01*
X264Y814D01*
X264Y812D01*
X262Y812D01*
X262Y810D01*
X260Y810D01*
X260Y808D01*
X258Y808D01*
X258Y704D01*
X302Y704D01*
X302Y796D01*
X304Y796D01*
X304Y798D01*
X306Y798D01*
X306Y800D01*
X308Y800D01*
X308Y802D01*
X310Y802D01*
X310Y822D01*
X272Y822D01*
G37*
D02*
G36*
X348Y798D02*
X348Y796D01*
X346Y796D01*
X346Y794D01*
X344Y794D01*
X344Y792D01*
X342Y792D01*
X342Y790D01*
X340Y790D01*
X340Y788D01*
X338Y788D01*
X338Y786D01*
X336Y786D01*
X336Y784D01*
X334Y784D01*
X334Y704D01*
X368Y704D01*
X368Y764D01*
X476Y764D01*
X476Y784D01*
X474Y784D01*
X474Y786D01*
X472Y786D01*
X472Y788D01*
X470Y788D01*
X470Y790D01*
X468Y790D01*
X468Y792D01*
X466Y792D01*
X466Y794D01*
X464Y794D01*
X464Y796D01*
X462Y796D01*
X462Y798D01*
X348Y798D01*
G37*
D02*
G36*
X772Y748D02*
X772Y746D01*
X770Y746D01*
X770Y744D01*
X768Y744D01*
X768Y742D01*
X766Y742D01*
X766Y694D01*
X772Y694D01*
X772Y692D01*
X792Y692D01*
X792Y748D01*
X772Y748D01*
G37*
D02*
G36*
X948Y742D02*
X948Y674D01*
X932Y674D01*
X932Y654D01*
X948Y654D01*
X948Y574D01*
X932Y574D01*
X932Y554D01*
X948Y554D01*
X948Y512D01*
X950Y512D01*
X950Y508D01*
X952Y508D01*
X952Y464D01*
X976Y464D01*
X976Y734D01*
X974Y734D01*
X974Y736D01*
X972Y736D01*
X972Y738D01*
X970Y738D01*
X970Y740D01*
X968Y740D01*
X968Y742D01*
X948Y742D01*
G37*
D02*
G36*
X796Y674D02*
X796Y654D01*
X888Y654D01*
X888Y674D01*
X796Y674D01*
G37*
D02*
G36*
X766Y634D02*
X766Y602D01*
X764Y602D01*
X764Y594D01*
X762Y594D01*
X762Y590D01*
X760Y590D01*
X760Y588D01*
X758Y588D01*
X758Y584D01*
X756Y584D01*
X756Y582D01*
X754Y582D01*
X754Y580D01*
X752Y580D01*
X752Y578D01*
X750Y578D01*
X750Y576D01*
X748Y576D01*
X748Y574D01*
X746Y574D01*
X746Y554D01*
X748Y554D01*
X748Y552D01*
X750Y552D01*
X750Y550D01*
X752Y550D01*
X752Y548D01*
X754Y548D01*
X754Y546D01*
X756Y546D01*
X756Y544D01*
X758Y544D01*
X758Y540D01*
X760Y540D01*
X760Y536D01*
X762Y536D01*
X762Y532D01*
X764Y532D01*
X764Y526D01*
X766Y526D01*
X766Y502D01*
X764Y502D01*
X764Y494D01*
X762Y494D01*
X762Y490D01*
X760Y490D01*
X760Y488D01*
X758Y488D01*
X758Y484D01*
X756Y484D01*
X756Y482D01*
X754Y482D01*
X754Y480D01*
X752Y480D01*
X752Y478D01*
X750Y478D01*
X750Y476D01*
X748Y476D01*
X748Y474D01*
X746Y474D01*
X746Y454D01*
X748Y454D01*
X748Y452D01*
X750Y452D01*
X750Y450D01*
X752Y450D01*
X752Y448D01*
X790Y448D01*
X790Y464D01*
X792Y464D01*
X792Y554D01*
X888Y554D01*
X888Y574D01*
X792Y574D01*
X792Y634D01*
X766Y634D01*
G37*
D02*
G36*
X258Y624D02*
X258Y604D01*
X368Y604D01*
X368Y624D01*
X258Y624D01*
G37*
D02*
G36*
X354Y592D02*
X354Y536D01*
X374Y536D01*
X374Y540D01*
X376Y540D01*
X376Y542D01*
X378Y542D01*
X378Y546D01*
X380Y546D01*
X380Y548D01*
X382Y548D01*
X382Y550D01*
X384Y550D01*
X384Y552D01*
X386Y552D01*
X386Y554D01*
X390Y554D01*
X390Y574D01*
X386Y574D01*
X386Y576D01*
X384Y576D01*
X384Y578D01*
X382Y578D01*
X382Y580D01*
X380Y580D01*
X380Y582D01*
X378Y582D01*
X378Y584D01*
X376Y584D01*
X376Y588D01*
X374Y588D01*
X374Y592D01*
X354Y592D01*
G37*
D02*
G36*
X184Y524D02*
X184Y424D01*
X182Y424D01*
X182Y208D01*
X184Y208D01*
X184Y206D01*
X186Y206D01*
X186Y204D01*
X188Y204D01*
X188Y202D01*
X190Y202D01*
X190Y200D01*
X192Y200D01*
X192Y198D01*
X194Y198D01*
X194Y196D01*
X196Y196D01*
X196Y194D01*
X198Y194D01*
X198Y192D01*
X200Y192D01*
X200Y190D01*
X202Y190D01*
X202Y188D01*
X204Y188D01*
X204Y186D01*
X206Y186D01*
X206Y184D01*
X208Y184D01*
X208Y182D01*
X210Y182D01*
X210Y180D01*
X438Y180D01*
X438Y272D01*
X278Y272D01*
X278Y274D01*
X272Y274D01*
X272Y276D01*
X270Y276D01*
X270Y278D01*
X268Y278D01*
X268Y280D01*
X266Y280D01*
X266Y282D01*
X264Y282D01*
X264Y284D01*
X262Y284D01*
X262Y286D01*
X258Y286D01*
X258Y288D01*
X256Y288D01*
X256Y290D01*
X254Y290D01*
X254Y292D01*
X252Y292D01*
X252Y294D01*
X250Y294D01*
X250Y296D01*
X248Y296D01*
X248Y298D01*
X246Y298D01*
X246Y300D01*
X244Y300D01*
X244Y302D01*
X242Y302D01*
X242Y304D01*
X240Y304D01*
X240Y306D01*
X238Y306D01*
X238Y308D01*
X236Y308D01*
X236Y310D01*
X234Y310D01*
X234Y312D01*
X232Y312D01*
X232Y314D01*
X230Y314D01*
X230Y316D01*
X228Y316D01*
X228Y320D01*
X226Y320D01*
X226Y424D01*
X204Y424D01*
X204Y502D01*
X206Y502D01*
X206Y504D01*
X254Y504D01*
X254Y524D01*
X184Y524D01*
G37*
D02*
G36*
X306Y524D02*
X306Y504D01*
X368Y504D01*
X368Y524D01*
X306Y524D01*
G37*
D02*
G36*
X506Y532D02*
X506Y530D01*
X504Y530D01*
X504Y528D01*
X502Y528D01*
X502Y524D01*
X500Y524D01*
X500Y522D01*
X498Y522D01*
X498Y520D01*
X496Y520D01*
X496Y518D01*
X494Y518D01*
X494Y516D01*
X492Y516D01*
X492Y514D01*
X490Y514D01*
X490Y512D01*
X488Y512D01*
X488Y510D01*
X486Y510D01*
X486Y508D01*
X484Y508D01*
X484Y506D01*
X482Y506D01*
X482Y504D01*
X480Y504D01*
X480Y502D01*
X478Y502D01*
X478Y500D01*
X474Y500D01*
X474Y498D01*
X464Y498D01*
X464Y494D01*
X462Y494D01*
X462Y490D01*
X460Y490D01*
X460Y488D01*
X458Y488D01*
X458Y484D01*
X456Y484D01*
X456Y482D01*
X454Y482D01*
X454Y480D01*
X452Y480D01*
X452Y478D01*
X450Y478D01*
X450Y476D01*
X448Y476D01*
X448Y474D01*
X446Y474D01*
X446Y454D01*
X448Y454D01*
X448Y452D01*
X450Y452D01*
X450Y450D01*
X452Y450D01*
X452Y448D01*
X454Y448D01*
X454Y446D01*
X456Y446D01*
X456Y444D01*
X458Y444D01*
X458Y440D01*
X460Y440D01*
X460Y436D01*
X462Y436D01*
X462Y432D01*
X464Y432D01*
X464Y426D01*
X466Y426D01*
X466Y402D01*
X464Y402D01*
X464Y394D01*
X462Y394D01*
X462Y390D01*
X460Y390D01*
X460Y388D01*
X458Y388D01*
X458Y384D01*
X456Y384D01*
X456Y382D01*
X454Y382D01*
X454Y380D01*
X452Y380D01*
X452Y378D01*
X450Y378D01*
X450Y376D01*
X448Y376D01*
X448Y374D01*
X446Y374D01*
X446Y372D01*
X442Y372D01*
X442Y370D01*
X438Y370D01*
X438Y368D01*
X432Y368D01*
X432Y366D01*
X426Y366D01*
X426Y364D01*
X526Y364D01*
X526Y532D01*
X506Y532D01*
G37*
D02*
G36*
X258Y424D02*
X258Y364D01*
X408Y364D01*
X408Y366D01*
X402Y366D01*
X402Y368D01*
X396Y368D01*
X396Y370D01*
X392Y370D01*
X392Y372D01*
X390Y372D01*
X390Y374D01*
X386Y374D01*
X386Y376D01*
X384Y376D01*
X384Y378D01*
X382Y378D01*
X382Y380D01*
X380Y380D01*
X380Y382D01*
X378Y382D01*
X378Y384D01*
X376Y384D01*
X376Y388D01*
X374Y388D01*
X374Y392D01*
X372Y392D01*
X372Y396D01*
X370Y396D01*
X370Y402D01*
X368Y402D01*
X368Y424D01*
X258Y424D01*
G37*
D02*
G36*
X258Y364D02*
X258Y362D01*
X526Y362D01*
X526Y364D01*
X258Y364D01*
G37*
D02*
G36*
X258Y364D02*
X258Y362D01*
X526Y362D01*
X526Y364D01*
X258Y364D01*
G37*
D02*
G36*
X258Y362D02*
X258Y356D01*
X362Y356D01*
X362Y354D01*
X368Y354D01*
X368Y352D01*
X370Y352D01*
X370Y350D01*
X374Y350D01*
X374Y348D01*
X376Y348D01*
X376Y346D01*
X378Y346D01*
X378Y344D01*
X380Y344D01*
X380Y340D01*
X382Y340D01*
X382Y334D01*
X384Y334D01*
X384Y304D01*
X438Y304D01*
X438Y332D01*
X514Y332D01*
X514Y334D01*
X516Y334D01*
X516Y336D01*
X518Y336D01*
X518Y338D01*
X520Y338D01*
X520Y340D01*
X522Y340D01*
X522Y342D01*
X524Y342D01*
X524Y344D01*
X526Y344D01*
X526Y362D01*
X258Y362D01*
G37*
D02*
G36*
X258Y356D02*
X258Y332D01*
X260Y332D01*
X260Y330D01*
X262Y330D01*
X262Y328D01*
X264Y328D01*
X264Y326D01*
X266Y326D01*
X266Y324D01*
X268Y324D01*
X268Y322D01*
X270Y322D01*
X270Y320D01*
X272Y320D01*
X272Y318D01*
X274Y318D01*
X274Y316D01*
X276Y316D01*
X276Y314D01*
X278Y314D01*
X278Y312D01*
X280Y312D01*
X280Y310D01*
X282Y310D01*
X282Y308D01*
X284Y308D01*
X284Y306D01*
X286Y306D01*
X286Y304D01*
X326Y304D01*
X326Y336D01*
X328Y336D01*
X328Y340D01*
X330Y340D01*
X330Y344D01*
X332Y344D01*
X332Y346D01*
X334Y346D01*
X334Y348D01*
X336Y348D01*
X336Y350D01*
X338Y350D01*
X338Y352D01*
X342Y352D01*
X342Y354D01*
X348Y354D01*
X348Y356D01*
X258Y356D01*
G37*
D02*
G36*
X870Y404D02*
X870Y308D01*
X846Y308D01*
X846Y258D01*
X844Y258D01*
X844Y254D01*
X842Y254D01*
X842Y252D01*
X840Y252D01*
X840Y250D01*
X838Y250D01*
X838Y230D01*
X900Y230D01*
X900Y232D01*
X902Y232D01*
X902Y234D01*
X904Y234D01*
X904Y236D01*
X906Y236D01*
X906Y238D01*
X908Y238D01*
X908Y240D01*
X910Y240D01*
X910Y242D01*
X912Y242D01*
X912Y244D01*
X914Y244D01*
X914Y308D01*
X890Y308D01*
X890Y404D01*
X870Y404D01*
G37*
D02*
G36*
X986Y350D02*
X986Y348D01*
X984Y348D01*
X984Y346D01*
X982Y346D01*
X982Y344D01*
X980Y344D01*
X980Y342D01*
X978Y342D01*
X978Y340D01*
X976Y340D01*
X976Y338D01*
X974Y338D01*
X974Y336D01*
X970Y336D01*
X970Y308D01*
X946Y308D01*
X946Y232D01*
X944Y232D01*
X944Y230D01*
X942Y230D01*
X942Y226D01*
X940Y226D01*
X940Y224D01*
X938Y224D01*
X938Y222D01*
X936Y222D01*
X936Y220D01*
X934Y220D01*
X934Y218D01*
X932Y218D01*
X932Y216D01*
X930Y216D01*
X930Y214D01*
X928Y214D01*
X928Y212D01*
X926Y212D01*
X926Y210D01*
X924Y210D01*
X924Y188D01*
X926Y188D01*
X926Y186D01*
X928Y186D01*
X928Y184D01*
X930Y184D01*
X930Y180D01*
X932Y180D01*
X932Y178D01*
X934Y178D01*
X934Y174D01*
X936Y174D01*
X936Y170D01*
X938Y170D01*
X938Y168D01*
X958Y168D01*
X958Y170D01*
X960Y170D01*
X960Y172D01*
X964Y172D01*
X964Y174D01*
X966Y174D01*
X966Y176D01*
X968Y176D01*
X968Y178D01*
X970Y178D01*
X970Y182D01*
X972Y182D01*
X972Y184D01*
X974Y184D01*
X974Y186D01*
X976Y186D01*
X976Y188D01*
X978Y188D01*
X978Y190D01*
X980Y190D01*
X980Y194D01*
X982Y194D01*
X982Y196D01*
X984Y196D01*
X984Y200D01*
X986Y200D01*
X986Y202D01*
X988Y202D01*
X988Y206D01*
X990Y206D01*
X990Y210D01*
X992Y210D01*
X992Y214D01*
X994Y214D01*
X994Y218D01*
X996Y218D01*
X996Y224D01*
X998Y224D01*
X998Y228D01*
X1000Y228D01*
X1000Y234D01*
X1002Y234D01*
X1002Y242D01*
X1004Y242D01*
X1004Y254D01*
X1006Y254D01*
X1006Y350D01*
X986Y350D01*
G37*
D02*
G36*
X724Y198D02*
X724Y196D01*
X708Y196D01*
X708Y136D01*
X744Y136D01*
X744Y164D01*
X746Y164D01*
X746Y170D01*
X748Y170D01*
X748Y174D01*
X750Y174D01*
X750Y178D01*
X752Y178D01*
X752Y198D01*
X724Y198D01*
G37*
D02*
G36*
X886Y986D02*
X886Y962D01*
X962Y962D01*
X962Y972D01*
X958Y972D01*
X958Y974D01*
X956Y974D01*
X956Y976D01*
X954Y976D01*
X954Y978D01*
X952Y978D01*
X952Y980D01*
X948Y980D01*
X948Y982D01*
X946Y982D01*
X946Y984D01*
X914Y984D01*
X914Y986D01*
X886Y986D01*
G37*
D02*
G36*
X616Y974D02*
X616Y962D01*
X730Y962D01*
X730Y974D01*
X616Y974D01*
G37*
D02*
G36*
X616Y962D02*
X616Y960D01*
X962Y960D01*
X962Y962D01*
X616Y962D01*
G37*
D02*
G36*
X616Y962D02*
X616Y960D01*
X962Y960D01*
X962Y962D01*
X616Y962D01*
G37*
D02*
G36*
X616Y960D02*
X616Y954D01*
X618Y954D01*
X618Y952D01*
X622Y952D01*
X622Y950D01*
X624Y950D01*
X624Y948D01*
X626Y948D01*
X626Y946D01*
X628Y946D01*
X628Y944D01*
X630Y944D01*
X630Y940D01*
X632Y940D01*
X632Y938D01*
X634Y938D01*
X634Y934D01*
X636Y934D01*
X636Y928D01*
X638Y928D01*
X638Y920D01*
X640Y920D01*
X640Y906D01*
X638Y906D01*
X638Y898D01*
X636Y898D01*
X636Y894D01*
X634Y894D01*
X634Y890D01*
X632Y890D01*
X632Y886D01*
X630Y886D01*
X630Y884D01*
X628Y884D01*
X628Y882D01*
X626Y882D01*
X626Y880D01*
X624Y880D01*
X624Y878D01*
X622Y878D01*
X622Y876D01*
X620Y876D01*
X620Y874D01*
X616Y874D01*
X616Y854D01*
X618Y854D01*
X618Y852D01*
X622Y852D01*
X622Y850D01*
X624Y850D01*
X624Y848D01*
X626Y848D01*
X626Y846D01*
X628Y846D01*
X628Y844D01*
X630Y844D01*
X630Y840D01*
X632Y840D01*
X632Y838D01*
X634Y838D01*
X634Y834D01*
X636Y834D01*
X636Y828D01*
X638Y828D01*
X638Y820D01*
X640Y820D01*
X640Y806D01*
X638Y806D01*
X638Y798D01*
X636Y798D01*
X636Y794D01*
X634Y794D01*
X634Y790D01*
X632Y790D01*
X632Y786D01*
X630Y786D01*
X630Y784D01*
X628Y784D01*
X628Y782D01*
X626Y782D01*
X626Y780D01*
X624Y780D01*
X624Y778D01*
X622Y778D01*
X622Y776D01*
X620Y776D01*
X620Y774D01*
X616Y774D01*
X616Y772D01*
X612Y772D01*
X612Y770D01*
X608Y770D01*
X608Y768D01*
X600Y768D01*
X600Y766D01*
X748Y766D01*
X748Y768D01*
X750Y768D01*
X750Y770D01*
X752Y770D01*
X752Y772D01*
X754Y772D01*
X754Y774D01*
X756Y774D01*
X756Y776D01*
X758Y776D01*
X758Y778D01*
X762Y778D01*
X762Y780D01*
X948Y780D01*
X948Y800D01*
X946Y800D01*
X946Y808D01*
X944Y808D01*
X944Y818D01*
X946Y818D01*
X946Y828D01*
X948Y828D01*
X948Y834D01*
X950Y834D01*
X950Y836D01*
X952Y836D01*
X952Y840D01*
X954Y840D01*
X954Y842D01*
X956Y842D01*
X956Y846D01*
X958Y846D01*
X958Y848D01*
X960Y848D01*
X960Y850D01*
X962Y850D01*
X962Y852D01*
X966Y852D01*
X966Y854D01*
X968Y854D01*
X968Y874D01*
X966Y874D01*
X966Y876D01*
X962Y876D01*
X962Y878D01*
X960Y878D01*
X960Y880D01*
X958Y880D01*
X958Y882D01*
X956Y882D01*
X956Y884D01*
X954Y884D01*
X954Y888D01*
X952Y888D01*
X952Y890D01*
X950Y890D01*
X950Y894D01*
X948Y894D01*
X948Y900D01*
X946Y900D01*
X946Y908D01*
X944Y908D01*
X944Y918D01*
X946Y918D01*
X946Y928D01*
X948Y928D01*
X948Y934D01*
X950Y934D01*
X950Y936D01*
X952Y936D01*
X952Y940D01*
X954Y940D01*
X954Y942D01*
X956Y942D01*
X956Y946D01*
X958Y946D01*
X958Y948D01*
X960Y948D01*
X960Y950D01*
X962Y950D01*
X962Y960D01*
X616Y960D01*
G37*
D02*
G36*
X558Y770D02*
X558Y766D01*
X586Y766D01*
X586Y768D01*
X578Y768D01*
X578Y770D01*
X558Y770D01*
G37*
D02*
G36*
X558Y766D02*
X558Y764D01*
X746Y764D01*
X746Y766D01*
X558Y766D01*
G37*
D02*
G36*
X558Y766D02*
X558Y764D01*
X746Y764D01*
X746Y766D01*
X558Y766D01*
G37*
D02*
G36*
X558Y764D02*
X558Y364D01*
X708Y364D01*
X708Y366D01*
X702Y366D01*
X702Y368D01*
X696Y368D01*
X696Y370D01*
X692Y370D01*
X692Y372D01*
X690Y372D01*
X690Y374D01*
X686Y374D01*
X686Y376D01*
X684Y376D01*
X684Y378D01*
X682Y378D01*
X682Y380D01*
X680Y380D01*
X680Y382D01*
X678Y382D01*
X678Y384D01*
X676Y384D01*
X676Y388D01*
X674Y388D01*
X674Y392D01*
X672Y392D01*
X672Y396D01*
X670Y396D01*
X670Y402D01*
X668Y402D01*
X668Y426D01*
X670Y426D01*
X670Y432D01*
X672Y432D01*
X672Y436D01*
X674Y436D01*
X674Y440D01*
X676Y440D01*
X676Y442D01*
X678Y442D01*
X678Y446D01*
X680Y446D01*
X680Y448D01*
X682Y448D01*
X682Y450D01*
X684Y450D01*
X684Y452D01*
X686Y452D01*
X686Y454D01*
X690Y454D01*
X690Y474D01*
X686Y474D01*
X686Y476D01*
X684Y476D01*
X684Y478D01*
X682Y478D01*
X682Y480D01*
X680Y480D01*
X680Y482D01*
X678Y482D01*
X678Y484D01*
X676Y484D01*
X676Y488D01*
X674Y488D01*
X674Y492D01*
X672Y492D01*
X672Y496D01*
X670Y496D01*
X670Y502D01*
X668Y502D01*
X668Y526D01*
X670Y526D01*
X670Y532D01*
X672Y532D01*
X672Y536D01*
X674Y536D01*
X674Y540D01*
X676Y540D01*
X676Y542D01*
X678Y542D01*
X678Y546D01*
X680Y546D01*
X680Y548D01*
X682Y548D01*
X682Y550D01*
X684Y550D01*
X684Y552D01*
X686Y552D01*
X686Y554D01*
X690Y554D01*
X690Y574D01*
X686Y574D01*
X686Y576D01*
X684Y576D01*
X684Y578D01*
X682Y578D01*
X682Y580D01*
X680Y580D01*
X680Y582D01*
X678Y582D01*
X678Y584D01*
X676Y584D01*
X676Y588D01*
X674Y588D01*
X674Y592D01*
X672Y592D01*
X672Y596D01*
X670Y596D01*
X670Y602D01*
X668Y602D01*
X668Y626D01*
X670Y626D01*
X670Y632D01*
X672Y632D01*
X672Y636D01*
X674Y636D01*
X674Y640D01*
X676Y640D01*
X676Y642D01*
X678Y642D01*
X678Y646D01*
X680Y646D01*
X680Y648D01*
X682Y648D01*
X682Y650D01*
X684Y650D01*
X684Y652D01*
X686Y652D01*
X686Y654D01*
X690Y654D01*
X690Y674D01*
X686Y674D01*
X686Y676D01*
X684Y676D01*
X684Y678D01*
X682Y678D01*
X682Y680D01*
X680Y680D01*
X680Y682D01*
X678Y682D01*
X678Y684D01*
X676Y684D01*
X676Y688D01*
X674Y688D01*
X674Y692D01*
X672Y692D01*
X672Y696D01*
X670Y696D01*
X670Y702D01*
X668Y702D01*
X668Y726D01*
X670Y726D01*
X670Y732D01*
X672Y732D01*
X672Y736D01*
X674Y736D01*
X674Y740D01*
X676Y740D01*
X676Y742D01*
X678Y742D01*
X678Y746D01*
X680Y746D01*
X680Y748D01*
X682Y748D01*
X682Y750D01*
X684Y750D01*
X684Y752D01*
X686Y752D01*
X686Y754D01*
X690Y754D01*
X690Y756D01*
X694Y756D01*
X694Y758D01*
X696Y758D01*
X696Y760D01*
X702Y760D01*
X702Y762D01*
X710Y762D01*
X710Y764D01*
X558Y764D01*
G37*
D02*
G36*
X724Y764D02*
X724Y762D01*
X744Y762D01*
X744Y764D01*
X724Y764D01*
G37*
D02*
G36*
X766Y404D02*
X766Y402D01*
X764Y402D01*
X764Y394D01*
X762Y394D01*
X762Y390D01*
X760Y390D01*
X760Y388D01*
X758Y388D01*
X758Y384D01*
X756Y384D01*
X756Y382D01*
X754Y382D01*
X754Y380D01*
X752Y380D01*
X752Y378D01*
X750Y378D01*
X750Y376D01*
X748Y376D01*
X748Y374D01*
X746Y374D01*
X746Y372D01*
X742Y372D01*
X742Y370D01*
X738Y370D01*
X738Y368D01*
X732Y368D01*
X732Y366D01*
X726Y366D01*
X726Y364D01*
X790Y364D01*
X790Y404D01*
X766Y404D01*
G37*
D02*
G36*
X558Y364D02*
X558Y362D01*
X790Y362D01*
X790Y364D01*
X558Y364D01*
G37*
D02*
G36*
X558Y364D02*
X558Y362D01*
X790Y362D01*
X790Y364D01*
X558Y364D01*
G37*
D02*
G36*
X558Y362D02*
X558Y330D01*
X708Y330D01*
X708Y254D01*
X752Y254D01*
X752Y290D01*
X748Y290D01*
X748Y292D01*
X746Y292D01*
X746Y294D01*
X744Y294D01*
X744Y296D01*
X742Y296D01*
X742Y300D01*
X740Y300D01*
X740Y304D01*
X738Y304D01*
X738Y322D01*
X740Y322D01*
X740Y328D01*
X742Y328D01*
X742Y330D01*
X744Y330D01*
X744Y334D01*
X746Y334D01*
X746Y336D01*
X748Y336D01*
X748Y338D01*
X752Y338D01*
X752Y340D01*
X756Y340D01*
X756Y342D01*
X762Y342D01*
X762Y344D01*
X790Y344D01*
X790Y362D01*
X558Y362D01*
G37*
D02*
G36*
X590Y330D02*
X590Y328D01*
X594Y328D01*
X594Y326D01*
X598Y326D01*
X598Y324D01*
X600Y324D01*
X600Y322D01*
X602Y322D01*
X602Y320D01*
X604Y320D01*
X604Y316D01*
X606Y316D01*
X606Y312D01*
X608Y312D01*
X608Y304D01*
X610Y304D01*
X610Y298D01*
X608Y298D01*
X608Y290D01*
X606Y290D01*
X606Y286D01*
X604Y286D01*
X604Y284D01*
X602Y284D01*
X602Y280D01*
X598Y280D01*
X598Y278D01*
X596Y278D01*
X596Y276D01*
X594Y276D01*
X594Y274D01*
X588Y274D01*
X588Y272D01*
X650Y272D01*
X650Y330D01*
X590Y330D01*
G37*
D02*
G36*
X530Y304D02*
X530Y302D01*
X528Y302D01*
X528Y300D01*
X524Y300D01*
X524Y298D01*
X496Y298D01*
X496Y272D01*
X572Y272D01*
X572Y274D01*
X566Y274D01*
X566Y276D01*
X562Y276D01*
X562Y278D01*
X560Y278D01*
X560Y280D01*
X558Y280D01*
X558Y282D01*
X556Y282D01*
X556Y286D01*
X554Y286D01*
X554Y288D01*
X552Y288D01*
X552Y294D01*
X550Y294D01*
X550Y304D01*
X530Y304D01*
G37*
D02*
G36*
X496Y272D02*
X496Y270D01*
X650Y270D01*
X650Y272D01*
X496Y272D01*
G37*
D02*
G36*
X496Y272D02*
X496Y270D01*
X650Y270D01*
X650Y272D01*
X496Y272D01*
G37*
D02*
G36*
X496Y270D02*
X496Y218D01*
X552Y218D01*
X552Y216D01*
X556Y216D01*
X556Y214D01*
X560Y214D01*
X560Y212D01*
X562Y212D01*
X562Y210D01*
X564Y210D01*
X564Y208D01*
X566Y208D01*
X566Y204D01*
X568Y204D01*
X568Y202D01*
X570Y202D01*
X570Y196D01*
X572Y196D01*
X572Y182D01*
X570Y182D01*
X570Y176D01*
X568Y176D01*
X568Y172D01*
X566Y172D01*
X566Y170D01*
X564Y170D01*
X564Y168D01*
X562Y168D01*
X562Y166D01*
X560Y166D01*
X560Y164D01*
X556Y164D01*
X556Y162D01*
X552Y162D01*
X552Y160D01*
X650Y160D01*
X650Y270D01*
X496Y270D01*
G37*
D02*
G36*
X496Y218D02*
X496Y204D01*
X518Y204D01*
X518Y208D01*
X520Y208D01*
X520Y210D01*
X522Y210D01*
X522Y212D01*
X526Y212D01*
X526Y214D01*
X528Y214D01*
X528Y216D01*
X534Y216D01*
X534Y218D01*
X496Y218D01*
G37*
D02*
G36*
X496Y172D02*
X496Y160D01*
X532Y160D01*
X532Y162D01*
X528Y162D01*
X528Y164D01*
X524Y164D01*
X524Y166D01*
X522Y166D01*
X522Y168D01*
X520Y168D01*
X520Y170D01*
X518Y170D01*
X518Y172D01*
X496Y172D01*
G37*
D02*
G36*
X496Y160D02*
X496Y158D01*
X650Y158D01*
X650Y160D01*
X496Y160D01*
G37*
D02*
G36*
X496Y160D02*
X496Y158D01*
X650Y158D01*
X650Y160D01*
X496Y160D01*
G37*
D02*
G36*
X496Y158D02*
X496Y136D01*
X650Y136D01*
X650Y158D01*
X496Y158D01*
G37*
D02*
G36*
X322Y341D02*
X346Y341D01*
X346Y316D01*
X322Y316D01*
X322Y341D01*
G37*
D02*
G36*
X360Y341D02*
X384Y341D01*
X384Y316D01*
X360Y316D01*
X360Y341D01*
G37*
D02*
G36*
X434Y273D02*
X464Y273D01*
X464Y260D01*
X434Y260D01*
X434Y273D01*
G37*
D02*
G36*
X678Y273D02*
X708Y273D01*
X708Y260D01*
X678Y260D01*
X678Y273D01*
G37*
D02*
G36*
X665Y140D02*
X690Y140D01*
X690Y126D01*
X665Y126D01*
X665Y140D01*
G37*
D02*
G36*
X434Y223D02*
X464Y223D01*
X464Y210D01*
X434Y210D01*
X434Y223D01*
G37*
D02*
G36*
X678Y197D02*
X708Y197D01*
X708Y184D01*
X678Y184D01*
X678Y197D01*
G37*
D02*
G04 End of Copper1*
M02*